<svg xmlns="http://www.w3.org/2000/svg" xmlns:xlink="http://www.w3.org/1999/xlink" contentStyleType="text/css" data-diagram-type="ACTIVITY" height="1036px" preserveAspectRatio="none" style="width:827px;height:1036px;background:#FBFAF7;" version="1.1" viewBox="0 0 827 1036" width="827px" zoomAndPan="magnify"><?plantuml 1.2026.6?><defs/><g><rect fill="#FBFAF7" height="1036" style="stroke:none;stroke-width:1;" width="827" x="0" y="0"/><ellipse cx="408.9787" cy="25" fill="#222222" rx="10" ry="10" style="stroke:#222222;stroke-width:1;"/><rect fill="#FFFFFF" height="48.996" rx="3" ry="3" style="stroke:#D9D3C7;stroke-width:0.5;" width="190.973" x="313.4922" y="55"/><text fill="#1F1D1A" font-family="'Helvetica Neue'" font-size="13" font-weight="700" lengthAdjust="spacing" textLength="161.265" x="328.3462" y="78.052">Collect the pending seeds</text><text fill="#1F1D1A" font-family="'Helvetica Neue'" font-size="11" lengthAdjust="spacing" textLength="170.973" x="323.4922" y="91.653">free-only pivots -&gt; zero API credits</text><rect fill="#FFFFFF" height="48.996" rx="3" ry="3" style="stroke:#D9D3C7;stroke-width:0.5;" width="205.603" x="306.1772" y="123.996"/><text fill="#1F1D1A" font-family="'Helvetica Neue'" font-size="13" font-weight="700" lengthAdjust="spacing" textLength="77.363" x="370.2972" y="147.048">Ingest -&gt; KB</text><text fill="#1F1D1A" font-family="'Helvetica Neue'" font-size="11" lengthAdjust="spacing" textLength="185.603" x="316.1772" y="160.649">every artifact becomes a shared node</text><rect fill="#FFFFFF" height="48.996" rx="3" ry="3" style="stroke:#D9D3C7;stroke-width:0.5;" width="196.254" x="310.8517" y="192.992"/><text fill="#1F1D1A" font-family="'Helvetica Neue'" font-size="13" font-weight="700" lengthAdjust="spacing" textLength="176.254" x="320.8517" y="216.044">Cluster &#183; snapshot the round</text><text fill="#1F1D1A" font-family="'Helvetica Neue'" font-size="11" lengthAdjust="spacing" textLength="131.01" x="343.4737" y="229.645">rounds.jsonl (append-only)</text><rect fill="#FFFFFF" height="75.242" rx="3" ry="3" style="stroke:#D9D3C7;stroke-width:0.5;" width="333.159" x="242.3992" y="261.988"/><text fill="#1F1D1A" font-family="'Helvetica Neue'" font-size="13" font-weight="700" lengthAdjust="spacing" textLength="167.063" x="325.4472" y="285.04">Compute the FREE frontier</text><text fill="#1F1D1A" font-family="'Helvetica Neue'" font-size="11" lengthAdjust="spacing" textLength="238.5459" x="289.7057" y="298.641">new registrable apexes found for free this round:</text><text fill="#1F1D1A" font-family="'Helvetica Neue'" font-size="11" lengthAdjust="spacing" textLength="294.998" x="261.4797" y="311.764">crt.sh SAN siblings &#183; passive-DNS co-hosts &#183; urlscan related</text><text fill="#1F1D1A" font-family="'Helvetica Neue'" font-size="11" lengthAdjust="spacing" textLength="313.159" x="252.3992" y="324.887">CORS trusted origins &#183; impersonation lookalikes &#183; path-kit peers</text><rect fill="#FBF0EF" height="108.646" rx="3" ry="3" style="stroke:#D9D3C7;stroke-width:0.5;" width="260.0089" x="278.9742" y="405.9455"/><text fill="#1F1D1A" font-family="'Helvetica Neue'" font-size="13" font-weight="700" lengthAdjust="spacing" textLength="206.31" x="305.8237" y="428.9975">Held back &#8212; recorded as a LEAD</text><text fill="#1F1D1A" font-family="'Helvetica Neue'" font-size="13" lengthAdjust="spacing" textLength="166.725" x="325.6162" y="444.5585">multi-tenant cert (&gt;4 apexes)</text><text fill="#1F1D1A" font-family="'Helvetica Neue'" font-size="13" lengthAdjust="spacing" textLength="172.718" x="322.6197" y="460.0675">shared / CDN IP (&gt;12 apexes)</text><text fill="#1F1D1A" font-family="'Helvetica Neue'" font-size="13" lengthAdjust="spacing" textLength="199.251" x="309.3532" y="475.5765">bulk registrant term (&gt;25 domains)</text><text fill="#1F1D1A" font-family="'Helvetica Neue'" font-size="11" lengthAdjust="spacing" textLength="240.0089" x="288.9742" y="489.1255">A bad seed gets INGESTED and becomes a fake</text><text fill="#1F1D1A" font-family="'Helvetica Neue'" font-size="11" lengthAdjust="spacing" textLength="174.383" x="321.7872" y="502.2485">shared indicator in every later case.</text><polygon fill="#FFFFFF" points="356.3677,357.23,461.5897,357.23,473.5897,369.23,461.5897,381.23,356.3677,381.23,344.3677,369.23,356.3677,357.23" style="stroke:#3B5566;stroke-width:0.5;stroke-linejoin:miter;stroke-miterlimit:10;"/><text fill="#6F6A61" font-family="'Helvetica Neue'" font-size="11" font-weight="700" lengthAdjust="spacing" textLength="62.733" x="412.9787" y="392.274">shared infra</text><text fill="#1F1D1A" font-family="'Helvetica Neue'" font-size="13" lengthAdjust="spacing" textLength="105.222" x="356.3677" y="374.2155">Co-tenancy guard</text><text fill="#6F6A61" font-family="'Helvetica Neue'" font-size="11" font-weight="700" lengthAdjust="spacing" textLength="84.931" x="473.5897" y="366.843">operator-owned</text><polygon fill="#FFFFFF" points="408.9787,534.5915,420.9787,546.5915,408.9787,558.5915,396.9787,546.5915,408.9787,534.5915" style="stroke:#3B5566;stroke-width:0.5;stroke-linejoin:miter;stroke-miterlimit:10;"/><rect fill="#FDF8EC" height="62.119" rx="3" ry="3" style="stroke:#D9D3C7;stroke-width:0.5;" width="192.328" x="312.8147" y="631.939"/><text fill="#1F1D1A" font-family="'Helvetica Neue'" font-size="13" font-weight="700" lengthAdjust="spacing" textLength="172.328" x="322.8147" y="654.991">Deferred to `metered_leads`</text><text fill="#1F1D1A" font-family="'Helvetica Neue'" font-size="11" lengthAdjust="spacing" textLength="154.22" x="331.8687" y="668.592">auto-chase FREE sources only;</text><text fill="#1F1D1A" font-family="'Helvetica Neue'" font-size="11" lengthAdjust="spacing" textLength="149.545" x="334.2062" y="681.715">pause before spending credits</text><polygon fill="#FFFFFF" points="260.9847,578.5915,556.9727,578.5915,568.9727,592.9075,556.9727,607.2235,260.9847,607.2235,248.9847,592.9075,260.9847,578.5915" style="stroke:#3B5566;stroke-width:0.5;stroke-linejoin:miter;stroke-miterlimit:10;"/><text fill="#6F6A61" font-family="'Helvetica Neue'" font-size="11" font-weight="700" lengthAdjust="spacing" textLength="17.93" x="412.9787" y="618.2675">yes</text><text fill="#1F1D1A" font-family="'Helvetica Neue'" font-size="13" lengthAdjust="spacing" textLength="87.893" x="365.0322" y="591.3315">Metered pivot?</text><text fill="#1F1D1A" font-family="'Helvetica Neue'" font-size="11" lengthAdjust="spacing" textLength="295.988" x="260.9847" y="604.8805">FOFA ip= / icon_hash= &#183; WhoisXML reverse &#183; Censys search</text><text fill="#6F6A61" font-family="'Helvetica Neue'" font-size="11" font-weight="700" lengthAdjust="spacing" textLength="20.57" x="568.9727" y="590.5205">free</text><polygon fill="#FFFFFF" points="408.9787,714.058,420.9787,726.058,408.9787,738.058,396.9787,726.058,408.9787,714.058" style="stroke:#3B5566;stroke-width:0.5;stroke-linejoin:miter;stroke-miterlimit:10;"/><rect fill="#FFFFFF" height="62.119" rx="3" ry="3" style="stroke:#D9D3C7;stroke-width:0.5;" width="245.7529" x="286.1022" y="758.058"/><text fill="#1F1D1A" font-family="'Helvetica Neue'" font-size="13" font-weight="700" lengthAdjust="spacing" textLength="146.367" x="335.7952" y="781.11">Render the assessment</text><text fill="#1F1D1A" font-family="'Helvetica Neue'" font-size="11" lengthAdjust="spacing" textLength="171.556" x="323.2007" y="794.711">gaps &#183; next_pivots &#183; metered_leads</text><text fill="#1F1D1A" font-family="'Helvetica Neue'" font-size="11" lengthAdjust="spacing" textLength="225.7529" x="296.1022" y="807.834">the analyst edits this to STEER the next round</text><polygon fill="#FFFFFF" points="40.807,840.177,76.934,840.177,88.934,852.177,76.934,864.177,40.807,864.177,28.807,852.177,40.807,840.177" style="stroke:#3B5566;stroke-width:0.5;stroke-linejoin:miter;stroke-miterlimit:10;"/><text fill="#6F6A61" font-family="'Helvetica Neue'" font-size="11" lengthAdjust="spacing" textLength="100.045" x="62.8705" y="874.957">last N rounds added</text><text fill="#6F6A61" font-family="'Helvetica Neue'" font-size="11" lengthAdjust="spacing" textLength="122.452" x="62.8705" y="888.08">0 hosts AND 0 indicators</text><text fill="#1F1D1A" font-family="'Helvetica Neue'" font-size="13" font-weight="700" lengthAdjust="spacing" textLength="36.127" x="40.807" y="857.2925">Stop?</text><rect fill="#F0F8F7" height="35.873" rx="3" ry="3" style="stroke:#D9D3C7;stroke-width:0.5;" width="85.741" x="16" y="910.423"/><text fill="#1F1D1A" font-family="'Helvetica Neue'" font-size="13" font-weight="700" lengthAdjust="spacing" textLength="65.741" x="26" y="933.475">converged</text><ellipse cx="58.8705" cy="992.296" fill="none" rx="11" ry="11" style="stroke:#222222;stroke-width:1;"/><ellipse cx="58.8705" cy="992.296" fill="#222222" rx="6" ry="6" style="stroke:#222222;stroke-width:1;"/><polygon fill="#FFFFFF" points="273.4405,840.177,354.5865,840.177,366.5865,852.177,354.5865,864.177,273.4405,864.177,261.4405,852.177,273.4405,840.177" style="stroke:#3B5566;stroke-width:0.5;stroke-linejoin:miter;stroke-miterlimit:10;"/><text fill="#6F6A61" font-family="'Helvetica Neue'" font-size="11" lengthAdjust="spacing" textLength="3.058" x="318.0135" y="874.957">&#160;</text><text fill="#1F1D1A" font-family="'Helvetica Neue'" font-size="13" lengthAdjust="spacing" textLength="81.146" x="273.4405" y="857.1625">frontier empty</text><rect fill="#FDF8EC" height="62.119" rx="3" ry="3" style="stroke:#D9D3C7;stroke-width:0.5;" width="237.3819" x="195.3225" y="897.3"/><text fill="#1F1D1A" font-family="'Helvetica Neue'" font-size="13" font-weight="700" lengthAdjust="spacing" textLength="26.702" x="300.6625" y="920.352">cold</text><text fill="#1F1D1A" font-family="'Helvetica Neue'" font-size="11" lengthAdjust="spacing" textLength="161.964" x="233.0315" y="933.953">"the free search is exhausted" &#8212;</text><text fill="#1F1D1A" font-family="'Helvetica Neue'" font-size="11" lengthAdjust="spacing" textLength="217.3819" x="205.3225" y="947.076">a CLAIM, never asserted from a failed probe</text><ellipse cx="314.0135" cy="1005.419" fill="none" rx="11" ry="11" style="stroke:#222222;stroke-width:1;"/><ellipse cx="314.0135" cy="1005.419" fill="#222222" rx="6" ry="6" style="stroke:#222222;stroke-width:1;"/><polygon fill="#FFFFFF" points="464.7044,836.668,563.4134,836.668,575.4134,852.177,563.4134,867.686,464.7044,867.686,452.7044,852.177,464.7044,836.668" style="stroke:#3B5566;stroke-width:0.5;stroke-linejoin:miter;stroke-miterlimit:10;"/><text fill="#6F6A61" font-family="'Helvetica Neue'" font-size="11" lengthAdjust="spacing" textLength="3.058" x="518.0589" y="878.466">&#160;</text><text fill="#1F1D1A" font-family="'Helvetica Neue'" font-size="13" lengthAdjust="spacing" textLength="80.678" x="473.7199" y="849.408">round cap hit,</text><text fill="#1F1D1A" font-family="'Helvetica Neue'" font-size="13" lengthAdjust="spacing" textLength="98.709" x="464.7044" y="864.917">work still queued</text><text fill="#6F6A61" font-family="'Helvetica Neue'" font-size="11" font-weight="700" lengthAdjust="spacing" textLength="56.012" x="575.4134" y="849.79">new seeds</text><rect fill="#FDF8EC" height="48.996" rx="3" ry="3" style="stroke:#D9D3C7;stroke-width:0.5;" width="122.487" x="452.8154" y="900.809"/><text fill="#1F1D1A" font-family="'Helvetica Neue'" font-size="13" font-weight="700" lengthAdjust="spacing" textLength="102.024" x="463.0469" y="923.861">awaiting-analyst</text><text fill="#1F1D1A" font-family="'Helvetica Neue'" font-size="11" lengthAdjust="spacing" textLength="102.487" x="462.8154" y="937.462">a cap is not a finding</text><ellipse cx="514.0589" cy="995.805" fill="none" rx="11" ry="11" style="stroke:#222222;stroke-width:1;"/><ellipse cx="514.0589" cy="995.805" fill="#222222" rx="6" ry="6" style="stroke:#222222;stroke-width:1;"/><rect fill="#FFFFFF" height="62.119" rx="3" ry="3" style="stroke:#D9D3C7;stroke-width:0.5;" width="212.544" x="595.4134" y="920.484"/><text fill="#1F1D1A" font-family="'Helvetica Neue'" font-size="13" font-weight="700" lengthAdjust="spacing" textLength="86.684" x="658.3434" y="943.536">NEXT ROUND</text><text fill="#1F1D1A" font-family="'Helvetica Neue'" font-size="11" lengthAdjust="spacing" textLength="178.255" x="612.5579" y="957.137">fold analyst-directed leads in FIRST,</text><text fill="#1F1D1A" font-family="'Helvetica Neue'" font-size="11" lengthAdjust="spacing" textLength="192.544" x="605.4134" y="970.26">then the mechanically-discovered ones</text><line style="stroke:#3B5566;stroke-width:1;" x1="408.9787" x2="408.9787" y1="35" y2="55"/><polygon fill="#3B5566" points="404.9787,45,408.9787,55,412.9787,45,408.9787,49" style="stroke:#3B5566;stroke-width:1;stroke-linejoin:miter;stroke-miterlimit:10;"/><line style="stroke:#3B5566;stroke-width:1;" x1="408.9787" x2="408.9787" y1="103.996" y2="123.996"/><polygon fill="#3B5566" points="404.9787,113.996,408.9787,123.996,412.9787,113.996,408.9787,117.996" style="stroke:#3B5566;stroke-width:1;stroke-linejoin:miter;stroke-miterlimit:10;"/><line style="stroke:#3B5566;stroke-width:1;" x1="408.9787" x2="408.9787" y1="172.992" y2="192.992"/><polygon fill="#3B5566" points="404.9787,182.992,408.9787,192.992,412.9787,182.992,408.9787,186.992" style="stroke:#3B5566;stroke-width:1;stroke-linejoin:miter;stroke-miterlimit:10;"/><line style="stroke:#3B5566;stroke-width:1;" x1="408.9787" x2="408.9787" y1="241.988" y2="261.988"/><polygon fill="#3B5566" points="404.9787,251.988,408.9787,261.988,412.9787,251.988,408.9787,255.988" style="stroke:#3B5566;stroke-width:1;stroke-linejoin:miter;stroke-miterlimit:10;"/><line style="stroke:#3B5566;stroke-width:1;" x1="408.9787" x2="408.9787" y1="381.23" y2="405.9455"/><polygon fill="#3B5566" points="404.9787,395.9455,408.9787,405.9455,412.9787,395.9455,408.9787,399.9455" style="stroke:#3B5566;stroke-width:1;stroke-linejoin:miter;stroke-miterlimit:10;"/><line style="stroke:#3B5566;stroke-width:1;" x1="473.5897" x2="548.9832" y1="369.23" y2="369.23"/><polygon fill="#3B5566" points="544.9832,450.2685,548.9832,460.2685,552.9832,450.2685,548.9832,454.2685" style="stroke:#3B5566;stroke-width:1;stroke-linejoin:miter;stroke-miterlimit:10;"/><line style="stroke:#3B5566;stroke-width:1;" x1="548.9832" x2="548.9832" y1="369.23" y2="546.5915"/><line style="stroke:#3B5566;stroke-width:1;" x1="548.9832" x2="420.9787" y1="546.5915" y2="546.5915"/><polygon fill="#3B5566" points="430.9787,542.5915,420.9787,546.5915,430.9787,550.5915,426.9787,546.5915" style="stroke:#3B5566;stroke-width:1;stroke-linejoin:miter;stroke-miterlimit:10;"/><line style="stroke:#3B5566;stroke-width:1;" x1="408.9787" x2="408.9787" y1="514.5915" y2="534.5915"/><polygon fill="#3B5566" points="404.9787,524.5915,408.9787,534.5915,412.9787,524.5915,408.9787,528.5915" style="stroke:#3B5566;stroke-width:1;stroke-linejoin:miter;stroke-miterlimit:10;"/><line style="stroke:#3B5566;stroke-width:1;" x1="408.9787" x2="408.9787" y1="337.23" y2="357.23"/><polygon fill="#3B5566" points="404.9787,347.23,408.9787,357.23,412.9787,347.23,408.9787,351.23" style="stroke:#3B5566;stroke-width:1;stroke-linejoin:miter;stroke-miterlimit:10;"/><line style="stroke:#3B5566;stroke-width:1;" x1="408.9787" x2="408.9787" y1="607.2235" y2="631.939"/><polygon fill="#3B5566" points="404.9787,621.939,408.9787,631.939,412.9787,621.939,408.9787,625.939" style="stroke:#3B5566;stroke-width:1;stroke-linejoin:miter;stroke-miterlimit:10;"/><line style="stroke:#3B5566;stroke-width:1;" x1="568.9727" x2="580.9727" y1="592.9075" y2="592.9075"/><polygon fill="#3B5566" points="576.9727,651.8405,580.9727,661.8405,584.9727,651.8405,580.9727,655.8405" style="stroke:#3B5566;stroke-width:1;stroke-linejoin:miter;stroke-miterlimit:10;"/><line style="stroke:#3B5566;stroke-width:1;" x1="580.9727" x2="580.9727" y1="592.9075" y2="726.058"/><line style="stroke:#3B5566;stroke-width:1;" x1="580.9727" x2="420.9787" y1="726.058" y2="726.058"/><polygon fill="#3B5566" points="430.9787,722.058,420.9787,726.058,430.9787,730.058,426.9787,726.058" style="stroke:#3B5566;stroke-width:1;stroke-linejoin:miter;stroke-miterlimit:10;"/><line style="stroke:#3B5566;stroke-width:1;" x1="408.9787" x2="408.9787" y1="694.058" y2="714.058"/><polygon fill="#3B5566" points="404.9787,704.058,408.9787,714.058,412.9787,704.058,408.9787,708.058" style="stroke:#3B5566;stroke-width:1;stroke-linejoin:miter;stroke-miterlimit:10;"/><line style="stroke:#3B5566;stroke-width:1;" x1="408.9787" x2="408.9787" y1="558.5915" y2="578.5915"/><polygon fill="#3B5566" points="404.9787,568.5915,408.9787,578.5915,412.9787,568.5915,408.9787,572.5915" style="stroke:#3B5566;stroke-width:1;stroke-linejoin:miter;stroke-miterlimit:10;"/><line style="stroke:#3B5566;stroke-width:1;" x1="408.9787" x2="408.9787" y1="738.058" y2="758.058"/><polygon fill="#3B5566" points="404.9787,748.058,408.9787,758.058,412.9787,748.058,408.9787,752.058" style="stroke:#3B5566;stroke-width:1;stroke-linejoin:miter;stroke-miterlimit:10;"/><line style="stroke:#3B5566;stroke-width:1;" x1="58.8705" x2="58.8705" y1="946.296" y2="981.296"/><polygon fill="#3B5566" points="54.8705,971.296,58.8705,981.296,62.8705,971.296,58.8705,975.296" style="stroke:#3B5566;stroke-width:1;stroke-linejoin:miter;stroke-miterlimit:10;"/><line style="stroke:#3B5566;stroke-width:1;" x1="314.0135" x2="314.0135" y1="959.419" y2="994.419"/><polygon fill="#3B5566" points="310.0135,984.419,314.0135,994.419,318.0135,984.419,314.0135,988.419" style="stroke:#3B5566;stroke-width:1;stroke-linejoin:miter;stroke-miterlimit:10;"/><line style="stroke:#3B5566;stroke-width:1;" x1="514.0589" x2="514.0589" y1="949.805" y2="984.805"/><polygon fill="#3B5566" points="510.0589,974.805,514.0589,984.805,518.0589,974.805,514.0589,978.805" style="stroke:#3B5566;stroke-width:1;stroke-linejoin:miter;stroke-miterlimit:10;"/><line style="stroke:#3B5566;stroke-width:1;" x1="58.8705" x2="58.8705" y1="864.177" y2="910.423"/><polygon fill="#3B5566" points="54.8705,900.423,58.8705,910.423,62.8705,900.423,58.8705,904.423" style="stroke:#3B5566;stroke-width:1;stroke-linejoin:miter;stroke-miterlimit:10;"/><line style="stroke:#3B5566;stroke-width:1;" x1="314.0135" x2="314.0135" y1="864.177" y2="897.3"/><polygon fill="#3B5566" points="310.0135,887.3,314.0135,897.3,318.0135,887.3,314.0135,891.3" style="stroke:#3B5566;stroke-width:1;stroke-linejoin:miter;stroke-miterlimit:10;"/><line style="stroke:#3B5566;stroke-width:1;" x1="514.0589" x2="514.0589" y1="867.686" y2="900.809"/><polygon fill="#3B5566" points="510.0589,890.809,514.0589,900.809,518.0589,890.809,514.0589,894.809" style="stroke:#3B5566;stroke-width:1;stroke-linejoin:miter;stroke-miterlimit:10;"/><line style="stroke:#3B5566;stroke-width:1;" x1="88.934" x2="261.4405" y1="852.177" y2="852.177"/><polygon fill="#3B5566" points="251.4405,848.177,261.4405,852.177,251.4405,856.177,255.4405,852.177" style="stroke:#3B5566;stroke-width:1;stroke-linejoin:miter;stroke-miterlimit:10;"/><line style="stroke:#3B5566;stroke-width:1;" x1="366.5865" x2="452.7044" y1="852.177" y2="852.177"/><polygon fill="#3B5566" points="442.7044,848.177,452.7044,852.177,442.7044,856.177,446.7044,852.177" style="stroke:#3B5566;stroke-width:1;stroke-linejoin:miter;stroke-miterlimit:10;"/><line style="stroke:#3B5566;stroke-width:1;" x1="408.9787" x2="408.9787" y1="820.177" y2="825.177"/><line style="stroke:#3B5566;stroke-width:1;" x1="408.9787" x2="58.8705" y1="825.177" y2="825.177"/><line style="stroke:#3B5566;stroke-width:1;" x1="58.8705" x2="58.8705" y1="825.177" y2="840.177"/><polygon fill="#3B5566" points="54.8705,830.177,58.8705,840.177,62.8705,830.177,58.8705,834.177" style="stroke:#3B5566;stroke-width:1;stroke-linejoin:miter;stroke-miterlimit:10;"/><line style="stroke:#3B5566;stroke-width:1;" x1="575.4134" x2="701.6854" y1="852.177" y2="852.177"/><line style="stroke:#3B5566;stroke-width:1;" x1="701.6854" x2="701.6854" y1="852.177" y2="920.484"/><polygon fill="#3B5566" points="697.6854,910.484,701.6854,920.484,705.6854,910.484,701.6854,914.484" style="stroke:#3B5566;stroke-width:1;stroke-linejoin:miter;stroke-miterlimit:10;"/><?plantuml-src XLNDKkD64BxxAJgRmu8A6TXAAbl0UijhorbNmAPiKja3LJ2MMjR4enbbPWHuJtc8l4lkUPGyIRf7yWyiLJbXfDRtTN_zTVTRkFcSmA0_J-1oEhs6V__y2_2f4Ze3No3arcWlqK9DVnHeumkfbw3n4L9JeeE5I5VTpbiO6Fs0TeawHP0kVEkygIXAPz9Beyz1G8QLBuwjgGaz5HK76gtMz8PXEFu8cBcGtZEDz1H2u1OhOprc81pSYqSX-Mqij51hv--FA1tYvfUPqTZjV2TrgkeCuOxIAB5RrQNgT9mNrdVEecXWbCBKXnmhfFI8oI5cBeew5qv-nRFJqrvk4UEGN2KVZ7SGz-0hMWFzwp6a5gaeTt7CqRrp1Xth9JhFKRzysiVXpAX0wsKkY7E1ZMm2N248XHJDS1zde6hdgPX__WQdHUKAqoGQHDi73WzSztT7ISA1gBYIaF3X5gufjgngZm5ZD4kIRKVtiRYT5fVIUIiM2a5K-4H9vg5HkR70QX04zIlGdhKKEuJK-guhODwVW9CBHP8wBg4Ipia7Z8UJEJaXBeppuNbjbKk59b8bgA_Vm0scipbuor9aOAnSIXs-asM5bYeMx2XGngo4aYjikNmHhyWo5LBCJWIPmy70n1wrqEaQbhMmsI7heU4WYjesI9rR4KM77G0IxJEgB5WoZ8EbdjciSP-0owG_9Eq0obfvsS1wID5wEEZzq4h7E2toCGo64nXVqzlJTtkl5xLQRKKd16fwIJ7lVYGJbuBgvQ2j87rA9mikXIMIXkF9pydy9Xc6STcPAXUhZPlslzuMcSbKUEgdrD0Oa-MtD8iEknl5uEBY-z6dqKaowlKwg1ooJ8PqvozZywWnOw5uSF96tIia4C8Fa_BnLczvHzDH7sJrWKIGj0Zk2k6A3zohtmeZtPUhInA0qY0AUZP0xTQEQXGsBTfaTdrQezksPuWvMYRq1kxBXlnEeSZSVUZCbb_KtiGfiRRUTwQsAJPBv_mLdIfHK-W2oVAqlZQxuSMq1ts6e_V9O4yV7f0zLIZ96VqaQNdkQ0ZGkHArtn-w9KqtrwtnoT-rIuR-VLRFDuCHu9gz1o6hPYf92793CWjq3DZCwVCXYA8vRTYFb6QhgXA4Ccb2oJqPUVnMdq0pfVt944vsbd6jzccxvya3ZH8de_UZdtei8-_l80YJRGy7bfLVRnXXYwAovwrwqrmRMZED0VWsu5CXmWfumtFuIhy432xxuwlT0N0OpWIHbs4Qf69RMhF0Lxlt8kVTOQ83T7Ih7urTKOHK2lweiSRiPHalJz4Bzsrk75rDpaO6E_rV8jmdtiVjHMgP9icN6vXDVvqCdtFa9EJ6474cQLLn_S4xFEIZyMn-S_IASg4Ebhn4cWzDFLPgJG0kDGzXbkcGxdOeqENs8YqQU_y7?></g></svg>