<svg xmlns="http://www.w3.org/2000/svg" xmlns:xlink="http://www.w3.org/1999/xlink" contentStyleType="text/css" data-diagram-type="SEQUENCE" height="1080px" preserveAspectRatio="none" style="width:1619px;height:1080px;background:#FBFAF7;" version="1.1" viewBox="0 0 1619 1080" width="1619px" zoomAndPan="magnify"><?plantuml 1.2026.6?><defs/><g><rect fill="#FBFAF7" height="1080" style="stroke:none;stroke-width:1;" width="1619" x="0" y="0"/><g class="participant-lifeline" data-entity-uid="part1" data-qualified-name="R" data-source-line="6" id="part1-lifeline"><g><title>..Recall..</title><rect fill="#000000" fill-opacity="0.00000" height="983.661" width="8" x="45.41" y="47.803"/><line style="stroke:#D9D3C7;stroke-width:0.5;stroke-dasharray:5,5;" x1="49" x2="49" y1="47.803" y2="1031.464"/></g></g><g class="participant-lifeline" data-entity-uid="part2" data-qualified-name="G" data-source-line="7" id="part2-lifeline"><g><title>..Gate..</title><rect fill="#000000" fill-opacity="0.00000" height="983.661" width="8" x="250.48" y="47.803"/><line style="stroke:#D9D3C7;stroke-width:0.5;stroke-dasharray:5,5;" x1="254.16" x2="254.16" y1="47.803" y2="1031.464"/></g></g><g class="participant-lifeline" data-entity-uid="part3" data-qualified-name="A" data-source-line="8" id="part3-lifeline"><g><title>..Acquire..</title><rect fill="#000000" fill-opacity="0.00000" height="983.661" width="8" x="473.931" y="47.803"/><line style="stroke:#D9D3C7;stroke-width:0.5;stroke-dasharray:5,5;" x1="477.6259" x2="477.6259" y1="47.803" y2="1031.464"/></g></g><g class="participant-lifeline" data-entity-uid="part4" data-qualified-name="E" data-source-line="9" id="part4-lifeline"><g><title>..Extract..</title><rect fill="#000000" fill-opacity="0.00000" height="983.661" width="8" x="761.3799" y="47.803"/><line style="stroke:#D9D3C7;stroke-width:0.5;stroke-dasharray:5,5;" x1="765.2849" x2="765.2849" y1="47.803" y2="1031.464"/></g></g><g class="participant-lifeline" data-entity-uid="part5" data-qualified-name="N" data-source-line="10" id="part5-lifeline"><g><title>..Enrich..</title><rect fill="#000000" fill-opacity="0.00000" height="983.661" width="8" x="1049.6869" y="47.803"/><line style="stroke:#D9D3C7;stroke-width:0.5;stroke-dasharray:5,5;" x1="1053.4019" x2="1053.4019" y1="47.803" y2="1031.464"/></g></g><g class="participant-lifeline" data-entity-uid="part6" data-qualified-name="P" data-source-line="11" id="part6-lifeline"><g><title>..Persist..</title><rect fill="#000000" fill-opacity="0.00000" height="983.661" width="8" x="1330.7998" y="47.803"/><line style="stroke:#D9D3C7;stroke-width:0.5;stroke-dasharray:5,5;" x1="1333.8598" x2="1333.8598" y1="47.803" y2="1031.464"/></g></g><g class="participant participant-head" data-entity-uid="part1" data-qualified-name="R" data-source-line="6" id="part1-head"><rect fill="#FFFFFF" height="41.803" rx="3" ry="3" style="stroke:#D9D3C7;stroke-width:0.5;" width="88.82" x="5" y="5"/><text fill="#1F1D1A" font-family="'Helvetica Neue'" font-size="13" font-weight="700" lengthAdjust="spacing" textLength="38.48" x="30.17" y="25.052">Recall</text><text fill="#1F1D1A" font-family="'Helvetica Neue'" font-size="10" lengthAdjust="spacing" textLength="74.82" x="12" y="37.673">have we seen it?</text></g><g class="participant participant-tail" data-entity-uid="part1" data-qualified-name="R" data-source-line="6" id="part1-tail"><rect fill="#FFFFFF" height="41.803" rx="3" ry="3" style="stroke:#D9D3C7;stroke-width:0.5;" width="88.82" x="5" y="1030.464"/><text fill="#1F1D1A" font-family="'Helvetica Neue'" font-size="13" font-weight="700" lengthAdjust="spacing" textLength="38.48" x="30.17" y="1050.516">Recall</text><text fill="#1F1D1A" font-family="'Helvetica Neue'" font-size="10" lengthAdjust="spacing" textLength="74.82" x="12" y="1063.137">have we seen it?</text></g><g class="participant participant-head" data-entity-uid="part2" data-qualified-name="G" data-source-line="7" id="part2-head"><rect fill="#FFFFFF" height="41.803" rx="3" ry="3" style="stroke:#D9D3C7;stroke-width:0.5;" width="58.64" x="225.16" y="5"/><text fill="#1F1D1A" font-family="'Helvetica Neue'" font-size="13" font-weight="700" lengthAdjust="spacing" textLength="29.367" x="239.7965" y="25.052">Gate</text><text fill="#1F1D1A" font-family="'Helvetica Neue'" font-size="10" lengthAdjust="spacing" textLength="44.64" x="232.16" y="37.673">audit.gate</text></g><g class="participant participant-tail" data-entity-uid="part2" data-qualified-name="G" data-source-line="7" id="part2-tail"><rect fill="#FFFFFF" height="41.803" rx="3" ry="3" style="stroke:#D9D3C7;stroke-width:0.5;" width="58.64" x="225.16" y="1030.464"/><text fill="#1F1D1A" font-family="'Helvetica Neue'" font-size="13" font-weight="700" lengthAdjust="spacing" textLength="29.367" x="239.7965" y="1050.516">Gate</text><text fill="#1F1D1A" font-family="'Helvetica Neue'" font-size="10" lengthAdjust="spacing" textLength="44.64" x="232.16" y="1063.137">audit.gate</text></g><g class="participant participant-head" data-entity-uid="part3" data-qualified-name="A" data-source-line="8" id="part3-head"><rect fill="#FFFFFF" height="41.803" rx="3" ry="3" style="stroke:#D9D3C7;stroke-width:0.5;" width="116.61" x="419.6259" y="5"/><text fill="#1F1D1A" font-family="'Helvetica Neue'" font-size="13" font-weight="700" lengthAdjust="spacing" textLength="47.892" x="453.985" y="25.052">Acquire</text><text fill="#1F1D1A" font-family="'Helvetica Neue'" font-size="10" lengthAdjust="spacing" textLength="102.61" x="426.6259" y="37.673">escalate, then fall back</text></g><g class="participant participant-tail" data-entity-uid="part3" data-qualified-name="A" data-source-line="8" id="part3-tail"><rect fill="#FFFFFF" height="41.803" rx="3" ry="3" style="stroke:#D9D3C7;stroke-width:0.5;" width="116.61" x="419.6259" y="1030.464"/><text fill="#1F1D1A" font-family="'Helvetica Neue'" font-size="13" font-weight="700" lengthAdjust="spacing" textLength="47.892" x="453.985" y="1050.516">Acquire</text><text fill="#1F1D1A" font-family="'Helvetica Neue'" font-size="10" lengthAdjust="spacing" textLength="102.61" x="426.6259" y="1063.137">escalate, then fall back</text></g><g class="participant participant-head" data-entity-uid="part4" data-qualified-name="E" data-source-line="9" id="part4-head"><rect fill="#FFFFFF" height="41.803" rx="3" ry="3" style="stroke:#D9D3C7;stroke-width:0.5;" width="84.19" x="723.2849" y="5"/><text fill="#1F1D1A" font-family="'Helvetica Neue'" font-size="13" font-weight="700" lengthAdjust="spacing" textLength="44.538" x="743.1109" y="25.052">Extract</text><text fill="#1F1D1A" font-family="'Helvetica Neue'" font-size="10" lengthAdjust="spacing" textLength="70.19" x="730.2849" y="37.673">the Pivot Matrix</text></g><g class="participant participant-tail" data-entity-uid="part4" data-qualified-name="E" data-source-line="9" id="part4-tail"><rect fill="#FFFFFF" height="41.803" rx="3" ry="3" style="stroke:#D9D3C7;stroke-width:0.5;" width="84.19" x="723.2849" y="1030.464"/><text fill="#1F1D1A" font-family="'Helvetica Neue'" font-size="13" font-weight="700" lengthAdjust="spacing" textLength="44.538" x="743.1109" y="1050.516">Extract</text><text fill="#1F1D1A" font-family="'Helvetica Neue'" font-size="10" lengthAdjust="spacing" textLength="70.19" x="730.2849" y="1063.137">the Pivot Matrix</text></g><g class="participant participant-head" data-entity-uid="part5" data-qualified-name="N" data-source-line="10" id="part5-head"><rect fill="#FFFFFF" height="41.803" rx="3" ry="3" style="stroke:#D9D3C7;stroke-width:0.5;" width="114.57" x="996.4019" y="5"/><text fill="#1F1D1A" font-family="'Helvetica Neue'" font-size="13" font-weight="700" lengthAdjust="spacing" textLength="39.715" x="1033.8294" y="25.052">Enrich</text><text fill="#1F1D1A" font-family="'Helvetica Neue'" font-size="10" lengthAdjust="spacing" textLength="100.57" x="1003.4019" y="37.673">keyed reverse lookups</text></g><g class="participant participant-tail" data-entity-uid="part5" data-qualified-name="N" data-source-line="10" id="part5-tail"><rect fill="#FFFFFF" height="41.803" rx="3" ry="3" style="stroke:#D9D3C7;stroke-width:0.5;" width="114.57" x="996.4019" y="1030.464"/><text fill="#1F1D1A" font-family="'Helvetica Neue'" font-size="13" font-weight="700" lengthAdjust="spacing" textLength="39.715" x="1033.8294" y="1050.516">Enrich</text><text fill="#1F1D1A" font-family="'Helvetica Neue'" font-size="10" lengthAdjust="spacing" textLength="100.57" x="1003.4019" y="1063.137">keyed reverse lookups</text></g><g class="participant participant-head" data-entity-uid="part6" data-qualified-name="P" data-source-line="11" id="part6-head"><rect fill="#FFFFFF" height="41.803" rx="3" ry="3" style="stroke:#D9D3C7;stroke-width:0.5;" width="79.88" x="1294.8598" y="5"/><text fill="#1F1D1A" font-family="'Helvetica Neue'" font-size="13" font-weight="700" lengthAdjust="spacing" textLength="43.082" x="1313.2588" y="25.052">Persist</text><text fill="#1F1D1A" font-family="'Helvetica Neue'" font-size="10" lengthAdjust="spacing" textLength="65.88" x="1301.8598" y="37.673">cases/&lt;case&gt;/</text></g><g class="participant participant-tail" data-entity-uid="part6" data-qualified-name="P" data-source-line="11" id="part6-tail"><rect fill="#FFFFFF" height="41.803" rx="3" ry="3" style="stroke:#D9D3C7;stroke-width:0.5;" width="79.88" x="1294.8598" y="1030.464"/><text fill="#1F1D1A" font-family="'Helvetica Neue'" font-size="13" font-weight="700" lengthAdjust="spacing" textLength="43.082" x="1313.2588" y="1050.516">Persist</text><text fill="#1F1D1A" font-family="'Helvetica Neue'" font-size="10" lengthAdjust="spacing" textLength="65.88" x="1301.8598" y="1063.137">cases/&lt;case&gt;/</text></g><g class="message" data-entity-1="part1" data-entity-2="part1" data-source-line="13" id="msg1"><line style="stroke:#3B5566;stroke-width:1;" x1="49.41" x2="91.41" y1="77.234" y2="77.234"/><line style="stroke:#3B5566;stroke-width:1;" x1="91.41" x2="91.41" y1="77.234" y2="90.234"/><line style="stroke:#3B5566;stroke-width:1;" x1="50.41" x2="91.41" y1="90.234" y2="90.234"/><polygon fill="#3B5566" points="60.41,86.234,50.41,90.234,60.41,94.234,56.41,90.234" style="stroke:#3B5566;stroke-width:1;stroke-linejoin:miter;stroke-miterlimit:10;"/><text fill="#6F6A61" font-family="'Helvetica Neue'" font-size="11" lengthAdjust="spacing" textLength="133.397" x="56.41" y="72.891">search cases/*/raw/ across</text><text fill="#6F6A61" font-family="'Helvetica Neue'" font-size="11" font-weight="700" lengthAdjust="spacing" textLength="28.336" x="192.865" y="72.847">every</text><text fill="#6F6A61" font-family="'Helvetica Neue'" font-size="11" lengthAdjust="spacing" textLength="23.221" x="224.259" y="72.891">case</text></g><path d="M54,106.234 L54,149.234 A3,3 0 0 0 57,152.234 L304,152.234 A3,3 0 0 0 307,149.234 L307,113.234 L297,103.234 L57,103.234 A3,3 0 0 0 54,106.234" fill="#FDF8EC" style="stroke:#B0790F;stroke-width:0.5;"/><path d="M297,103.234 L297,111.734 A1.5,1.5 0 0 0 298.5,113.234 L307,113.234 L297,103.234" fill="#FDF8EC" style="stroke:#B0790F;stroke-width:0.5;"/><text fill="#1F1D1A" font-family="'Helvetica Neue'" font-size="11" lengthAdjust="spacing" textLength="220.825" x="70.54" y="119.014">A seed already collected returns CACHED &#8212;</text><text fill="#1F1D1A" font-family="'Helvetica Neue'" font-size="11" lengthAdjust="spacing" textLength="223.905" x="69" y="132.137">the cheapest possible answer, and it tells you</text><text fill="#1F1D1A" font-family="'Helvetica Neue'" font-size="11" lengthAdjust="spacing" textLength="171.347" x="95.279" y="145.26">the host is already in another case.</text><g class="message" data-entity-1="part1" data-entity-2="part2" data-source-line="20" id="msg2"><polygon fill="#3B5566" points="242.48,172.726,252.48,176.726,242.48,180.726,246.48,176.726" style="stroke:#3B5566;stroke-width:1;stroke-linejoin:miter;stroke-miterlimit:10;"/><line style="stroke:#3B5566;stroke-width:1;" x1="49.41" x2="248.48" y1="176.726" y2="176.726"/><text fill="#6F6A61" font-family="'Helvetica Neue'" font-size="11" lengthAdjust="spacing" textLength="46.86" x="128.515" y="172.383">proceed?</text></g><g class="message" data-entity-1="part2" data-entity-2="part2" data-source-line="21" id="msg3"><line style="stroke:#3B5566;stroke-width:1;" x1="254.48" x2="296.48" y1="203.849" y2="203.849"/><line style="stroke:#3B5566;stroke-width:1;" x1="296.48" x2="296.48" y1="203.849" y2="216.849"/><line style="stroke:#3B5566;stroke-width:1;" x1="255.48" x2="296.48" y1="216.849" y2="216.849"/><polygon fill="#3B5566" points="265.48,212.849,255.48,216.849,265.48,220.849,261.48,216.849" style="stroke:#3B5566;stroke-width:1;stroke-linejoin:miter;stroke-miterlimit:10;"/><text fill="#6F6A61" font-family="'Helvetica Neue'" font-size="11" lengthAdjust="spacing" textLength="209.451" x="261.48" y="199.506">hostile target, no passive mode, no proxy?</text></g><path d="M259,232.849 L259,262.849 A3,3 0 0 0 262,265.849 L533,265.849 A3,3 0 0 0 536,262.849 L536,239.849 L526,229.849 L262,229.849 A3,3 0 0 0 259,232.849" fill="#FBF0EF" style="stroke:#B0790F;stroke-width:0.5;"/><path d="M526,229.849 L526,238.349 A1.5,1.5 0 0 0 527.5,239.849 L536,239.849 L526,229.849" fill="#FBF0EF" style="stroke:#B0790F;stroke-width:0.5;"/><text fill="#1F1D1A" font-family="'Helvetica Neue'" font-size="11" font-weight="700" lengthAdjust="spacing" textLength="46.442" x="274" y="245.893">Refused.</text><text fill="#1F1D1A" font-family="'Helvetica Neue'" font-size="11" lengthAdjust="spacing" textLength="198.429" x="323.5" y="245.937">Fetching a hostile host from your own IP</text><text fill="#1F1D1A" font-family="'Helvetica Neue'" font-size="11" lengthAdjust="spacing" textLength="225.1259" x="285.4015" y="259.06">tells the operator they are under investigation.</text><g class="message" data-entity-1="part2" data-entity-2="part3" data-source-line="27" id="msg4"><polygon fill="#3B5566" points="465.931,286.526,475.931,290.526,465.931,294.526,469.931,290.526" style="stroke:#3B5566;stroke-width:1;stroke-linejoin:miter;stroke-miterlimit:10;"/><line style="stroke:#3B5566;stroke-width:1;" x1="254.48" x2="471.931" y1="290.526" y2="290.526"/><text fill="#6F6A61" font-family="'Helvetica Neue'" font-size="11" lengthAdjust="spacing" textLength="37.873" x="347.269" y="286.183">allowed</text></g><g class="message" data-entity-1="part3" data-entity-2="part3" data-source-line="28" id="msg5"><line style="stroke:#3B5566;stroke-width:1;" x1="477.931" x2="519.931" y1="317.649" y2="317.649"/><line style="stroke:#3B5566;stroke-width:1;" x1="519.931" x2="519.931" y1="317.649" y2="330.649"/><line style="stroke:#3B5566;stroke-width:1;" x1="478.931" x2="519.931" y1="330.649" y2="330.649"/><polygon fill="#3B5566" points="488.931,326.649,478.931,330.649,488.931,334.649,484.931,330.649" style="stroke:#3B5566;stroke-width:1;stroke-linejoin:miter;stroke-miterlimit:10;"/><text fill="#6F6A61" font-family="'Helvetica Neue'" font-size="11" lengthAdjust="spacing" textLength="52.349" x="484.931" y="313.306">direct GET</text></g><g class="message" data-entity-1="part3" data-entity-2="part3" data-source-line="29" id="msg6"><line style="stroke:#3B5566;stroke-width:1;" x1="477.931" x2="519.931" y1="357.772" y2="357.772"/><line style="stroke:#3B5566;stroke-width:1;" x1="519.931" x2="519.931" y1="357.772" y2="370.772"/><line style="stroke:#3B5566;stroke-width:1;" x1="478.931" x2="519.931" y1="370.772" y2="370.772"/><polygon fill="#3B5566" points="488.931,366.772,478.931,370.772,488.931,374.772,484.931,370.772" style="stroke:#3B5566;stroke-width:1;stroke-linejoin:miter;stroke-miterlimit:10;"/><text fill="#6F6A61" font-family="'Helvetica Neue'" font-size="11" lengthAdjust="spacing" textLength="232.683" x="484.931" y="353.429">rotate-ua  -&gt;  proxy  -&gt;  render  -&gt;  FlareSolverr</text></g><g class="message" data-entity-1="part3" data-entity-2="part3" data-source-line="30" id="msg7"><line style="stroke:#3B5566;stroke-width:1;" x1="477.931" x2="519.931" y1="397.895" y2="397.895"/><line style="stroke:#3B5566;stroke-width:1;" x1="519.931" x2="519.931" y1="397.895" y2="410.895"/><line style="stroke:#3B5566;stroke-width:1;" x1="478.931" x2="519.931" y1="410.895" y2="410.895"/><polygon fill="#3B5566" points="488.931,406.895,478.931,410.895,488.931,414.895,484.931,410.895" style="stroke:#3B5566;stroke-width:1;stroke-linejoin:miter;stroke-miterlimit:10;"/><text fill="#6F6A61" font-family="'Helvetica Neue'" font-size="11" lengthAdjust="spacing" textLength="273.4489" x="484.931" y="393.552">still cold? Wayback snapshot, then urlscan stored DOM</text></g><path d="M482,426.895 L482,469.895 A3,3 0 0 0 485,472.895 L786,472.895 A3,3 0 0 0 789,469.895 L789,433.895 L779,423.895 L485,423.895 A3,3 0 0 0 482,426.895" fill="#FDF8EC" style="stroke:#B0790F;stroke-width:0.5;"/><path d="M779,423.895 L779,432.395 A1.5,1.5 0 0 0 780.5,433.895 L789,433.895 L779,423.895" fill="#FDF8EC" style="stroke:#B0790F;stroke-width:0.5;"/><text fill="#1F1D1A" font-family="'Helvetica Neue'" font-size="11" lengthAdjust="spacing" textLength="260.37" x="505.338" y="439.675">A cold seed never ends on silence: if every path fails,</text><text fill="#1F1D1A" font-family="'Helvetica Neue'" font-size="11" lengthAdjust="spacing" textLength="277.046" x="497" y="452.798">fallback_probe returns PIVOTABLE (with surviving leads)</text><text fill="#1F1D1A" font-family="'Helvetica Neue'" font-size="11" lengthAdjust="spacing" textLength="175.802" x="547.622" y="465.921">or NO-PIVOT-YET (with next steps).</text><g class="message" data-entity-1="part3" data-entity-2="part4" data-source-line="37" id="msg8"><polygon fill="#3B5566" points="753.3799,493.387,763.3799,497.387,753.3799,501.387,757.3799,497.387" style="stroke:#3B5566;stroke-width:1;stroke-linejoin:miter;stroke-miterlimit:10;"/><line style="stroke:#3B5566;stroke-width:1;" x1="477.931" x2="759.3799" y1="497.387" y2="497.387"/><text fill="#6F6A61" font-family="'Helvetica Neue'" font-size="11" lengthAdjust="spacing" textLength="159.115" x="542.0979" y="493.044">DOM (live, rendered or archived)</text></g><g class="message" data-entity-1="part4" data-entity-2="part4" data-source-line="38" id="msg9"><line style="stroke:#3B5566;stroke-width:1;" x1="765.3799" x2="807.3799" y1="524.51" y2="524.51"/><line style="stroke:#3B5566;stroke-width:1;" x1="807.3799" x2="807.3799" y1="524.51" y2="537.51"/><line style="stroke:#3B5566;stroke-width:1;" x1="766.3799" x2="807.3799" y1="537.51" y2="537.51"/><polygon fill="#3B5566" points="776.3799,533.51,766.3799,537.51,776.3799,541.51,772.3799,537.51" style="stroke:#3B5566;stroke-width:1;stroke-linejoin:miter;stroke-miterlimit:10;"/><text fill="#6F6A61" font-family="'Helvetica Neue'" font-size="11" lengthAdjust="spacing" textLength="207.592" x="772.3799" y="520.167">favicon &#183; trackers &#183; wallets &#183; Telegram &#183; QR</text></g><g class="message" data-entity-1="part4" data-entity-2="part4" data-source-line="39" id="msg10"><line style="stroke:#3B5566;stroke-width:1;" x1="765.3799" x2="807.3799" y1="564.941" y2="564.941"/><line style="stroke:#3B5566;stroke-width:1;" x1="807.3799" x2="807.3799" y1="564.941" y2="577.941"/><line style="stroke:#3B5566;stroke-width:1;" x1="766.3799" x2="807.3799" y1="577.941" y2="577.941"/><polygon fill="#3B5566" points="776.3799,573.941,766.3799,577.941,776.3799,581.941,772.3799,577.941" style="stroke:#3B5566;stroke-width:1;stroke-linejoin:miter;stroke-miterlimit:10;"/><text fill="#6F6A61" font-family="'Helvetica Neue'" font-size="11" lengthAdjust="spacing" textLength="51.216" x="772.3799" y="560.598">TLS cert +</text><text fill="#6F6A61" font-family="'Helvetica Neue'" font-size="11" font-weight="700" lengthAdjust="spacing" textLength="31.57" x="826.6539" y="560.554">JARM</text><text fill="#6F6A61" font-family="'Helvetica Neue'" font-size="11" lengthAdjust="spacing" textLength="185.405" x="861.2819" y="560.598">&#183; CORS backends &#183; mail/SPF/DMARC</text></g><g class="message" data-entity-1="part4" data-entity-2="part4" data-source-line="40" id="msg11"><line style="stroke:#3B5566;stroke-width:1;" x1="765.3799" x2="807.3799" y1="605.064" y2="605.064"/><line style="stroke:#3B5566;stroke-width:1;" x1="807.3799" x2="807.3799" y1="605.064" y2="618.064"/><line style="stroke:#3B5566;stroke-width:1;" x1="766.3799" x2="807.3799" y1="618.064" y2="618.064"/><polygon fill="#3B5566" points="776.3799,614.064,766.3799,618.064,776.3799,622.064,772.3799,618.064" style="stroke:#3B5566;stroke-width:1;stroke-linejoin:miter;stroke-miterlimit:10;"/><text fill="#6F6A61" font-family="'Helvetica Neue'" font-size="11" lengthAdjust="spacing" textLength="230.021" x="772.3799" y="600.721">keyless RDAP WHOIS &#183; Wayback CDX timeline</text></g><g class="message" data-entity-1="part4" data-entity-2="part4" data-source-line="41" id="msg12"><line style="stroke:#3B5566;stroke-width:1;" x1="765.3799" x2="807.3799" y1="645.187" y2="645.187"/><line style="stroke:#3B5566;stroke-width:1;" x1="807.3799" x2="807.3799" y1="645.187" y2="658.187"/><line style="stroke:#3B5566;stroke-width:1;" x1="766.3799" x2="807.3799" y1="658.187" y2="658.187"/><polygon fill="#3B5566" points="776.3799,654.187,766.3799,658.187,776.3799,662.187,772.3799,658.187" style="stroke:#3B5566;stroke-width:1;stroke-linejoin:miter;stroke-miterlimit:10;"/><text fill="#6F6A61" font-family="'Helvetica Neue'" font-size="11" lengthAdjust="spacing" textLength="236.126" x="772.3799" y="640.844">own JS/CSS bundles, source maps, SPA routes</text></g><g class="message" data-entity-1="part4" data-entity-2="part4" data-source-line="42" id="msg13"><line style="stroke:#3B5566;stroke-width:1;" x1="765.3799" x2="807.3799" y1="685.31" y2="685.31"/><line style="stroke:#3B5566;stroke-width:1;" x1="807.3799" x2="807.3799" y1="685.31" y2="698.31"/><line style="stroke:#3B5566;stroke-width:1;" x1="766.3799" x2="807.3799" y1="698.31" y2="698.31"/><polygon fill="#3B5566" points="776.3799,694.31,766.3799,698.31,776.3799,702.31,772.3799,698.31" style="stroke:#3B5566;stroke-width:1;stroke-linejoin:miter;stroke-miterlimit:10;"/><text fill="#6F6A61" font-family="'Helvetica Neue'" font-size="11" lengthAdjust="spacing" textLength="200.145" x="772.3799" y="680.967">hosted PDFs/images -&gt; /Info, XMP, EXIF</text></g><g class="message" data-entity-1="part4" data-entity-2="part4" data-source-line="43" id="msg14"><line style="stroke:#3B5566;stroke-width:1;" x1="765.3799" x2="807.3799" y1="725.741" y2="725.741"/><line style="stroke:#3B5566;stroke-width:1;" x1="807.3799" x2="807.3799" y1="725.741" y2="738.741"/><line style="stroke:#3B5566;stroke-width:1;" x1="766.3799" x2="807.3799" y1="738.741" y2="738.741"/><polygon fill="#3B5566" points="776.3799,734.741,766.3799,738.741,776.3799,742.741,772.3799,738.741" style="stroke:#3B5566;stroke-width:1;stroke-linejoin:miter;stroke-miterlimit:10;"/><text fill="#6F6A61" font-family="'Helvetica Neue'" font-size="11" font-weight="700" lengthAdjust="spacing" textLength="188.353" x="772.3799" y="721.354">URL path -&gt; kit directory + template</text></g><g class="message" data-entity-1="part4" data-entity-2="part4" data-source-line="44" id="msg15"><line style="stroke:#3B5566;stroke-width:1;" x1="765.3799" x2="807.3799" y1="766.172" y2="766.172"/><line style="stroke:#3B5566;stroke-width:1;" x1="807.3799" x2="807.3799" y1="766.172" y2="779.172"/><line style="stroke:#3B5566;stroke-width:1;" x1="766.3799" x2="807.3799" y1="779.172" y2="779.172"/><polygon fill="#3B5566" points="776.3799,775.172,766.3799,779.172,776.3799,783.172,772.3799,779.172" style="stroke:#3B5566;stroke-width:1;stroke-linejoin:miter;stroke-miterlimit:10;"/><text fill="#6F6A61" font-family="'Helvetica Neue'" font-size="11" font-weight="700" lengthAdjust="spacing" textLength="62.942" x="772.3799" y="761.785">raw capture</text><text fill="#6F6A61" font-family="'Helvetica Neue'" font-size="11" lengthAdjust="spacing" textLength="162.877" x="838.3799" y="761.829">&#8212; DOM + every JS/CSS, hashed</text></g><g class="message" data-entity-1="part4" data-entity-2="part5" data-source-line="46" id="msg16"><polygon fill="#3B5566" points="1041.6869,802.295,1051.6869,806.295,1041.6869,810.295,1045.6869,806.295" style="stroke:#3B5566;stroke-width:1;stroke-linejoin:miter;stroke-miterlimit:10;"/><line style="stroke:#3B5566;stroke-width:1;" x1="765.3799" x2="1047.6869" y1="806.295" y2="806.295"/><text fill="#6F6A61" font-family="'Helvetica Neue'" font-size="11" lengthAdjust="spacing" textLength="39.512" x="889.7774" y="801.952">artifacts</text></g><g class="message" data-entity-1="part5" data-entity-2="part5" data-source-line="47" id="msg17"><line style="stroke:#3B5566;stroke-width:1;" x1="1053.6869" x2="1095.6869" y1="833.418" y2="833.418"/><line style="stroke:#3B5566;stroke-width:1;" x1="1095.6869" x2="1095.6869" y1="833.418" y2="846.418"/><line style="stroke:#3B5566;stroke-width:1;" x1="1054.6869" x2="1095.6869" y1="846.418" y2="846.418"/><polygon fill="#3B5566" points="1064.6869,842.418,1054.6869,846.418,1064.6869,850.418,1060.6869,846.418" style="stroke:#3B5566;stroke-width:1;stroke-linejoin:miter;stroke-miterlimit:10;"/><text fill="#6F6A61" font-family="'Helvetica Neue'" font-size="11" lengthAdjust="spacing" textLength="267.1129" x="1060.6869" y="829.075">FOFA &#183; urlscan &#183; Censys &#183; Shodan &#183; WhoisXML reverse</text></g><g class="message" data-entity-1="part5" data-entity-2="part5" data-source-line="48" id="msg18"><line style="stroke:#3B5566;stroke-width:1;" x1="1053.6869" x2="1095.6869" y1="873.849" y2="873.849"/><line style="stroke:#3B5566;stroke-width:1;" x1="1095.6869" x2="1095.6869" y1="873.849" y2="886.849"/><line style="stroke:#3B5566;stroke-width:1;" x1="1054.6869" x2="1095.6869" y1="886.849" y2="886.849"/><polygon fill="#3B5566" points="1064.6869,882.849,1054.6869,886.849,1064.6869,890.849,1060.6869,886.849" style="stroke:#3B5566;stroke-width:1;stroke-linejoin:miter;stroke-miterlimit:10;"/><text fill="#6F6A61" font-family="'Helvetica Neue'" font-size="11" font-weight="700" lengthAdjust="spacing" textLength="30.129" x="1060.6869" y="869.462">IntelX</text><text fill="#6F6A61" font-family="'Helvetica Neue'" font-size="11" lengthAdjust="spacing" textLength="192.918" x="1093.8739" y="869.506">&#8212; stealer-log pass FIRST, then general</text></g><path d="M1058,902.849 L1058,945.849 A3,3 0 0 0 1061,948.849 L1321,948.849 A3,3 0 0 0 1324,945.849 L1324,909.849 L1314,899.849 L1061,899.849 A3,3 0 0 0 1058,902.849" fill="#FDF8EC" style="stroke:#B0790F;stroke-width:0.5;"/><path d="M1314,899.849 L1314,908.349 A1.5,1.5 0 0 0 1315.5,909.849 L1324,909.849 L1314,899.849" fill="#FDF8EC" style="stroke:#B0790F;stroke-width:0.5;"/><text fill="#1F1D1A" font-family="'Helvetica Neue'" font-size="11" lengthAdjust="spacing" textLength="227.37" x="1077.796" y="915.629">Every absent key is DECLARED. A keyless run</text><text fill="#1F1D1A" font-family="'Helvetica Neue'" font-size="11" lengthAdjust="spacing" textLength="236.962" x="1073" y="928.752">says what it could not query, so "nothing found"</text><text fill="#1F1D1A" font-family="'Helvetica Neue'" font-size="11" lengthAdjust="spacing" textLength="185.812" x="1098.575" y="941.875">is never mistaken for "nothing exists".</text><g class="message" data-entity-1="part5" data-entity-2="part6" data-source-line="55" id="msg19"><polygon fill="#3B5566" points="1322.7998,969.341,1332.7998,973.341,1322.7998,977.341,1326.7998,973.341" style="stroke:#3B5566;stroke-width:1;stroke-linejoin:miter;stroke-miterlimit:10;"/><line style="stroke:#3B5566;stroke-width:1;" x1="1053.6869" x2="1328.7998" y1="973.341" y2="973.341"/><text fill="#6F6A61" font-family="'Helvetica Neue'" font-size="11" lengthAdjust="spacing" textLength="94.138" x="1147.1743" y="968.998">one JSON per host</text></g><g class="message" data-entity-1="part6" data-entity-2="part6" data-source-line="56" id="msg20"><line style="stroke:#3B5566;stroke-width:1;" x1="1334.7998" x2="1376.7998" y1="1000.464" y2="1000.464"/><line style="stroke:#3B5566;stroke-width:1;" x1="1376.7998" x2="1376.7998" y1="1000.464" y2="1013.464"/><line style="stroke:#3B5566;stroke-width:1;" x1="1335.7998" x2="1376.7998" y1="1013.464" y2="1013.464"/><polygon fill="#3B5566" points="1345.7998,1009.464,1335.7998,1013.464,1345.7998,1017.464,1341.7998,1013.464" style="stroke:#3B5566;stroke-width:1;stroke-linejoin:miter;stroke-miterlimit:10;"/><text fill="#6F6A61" font-family="'Helvetica Neue'" font-size="11" lengthAdjust="spacing" textLength="264.5719" x="1341.7998" y="996.121">raw/&lt;host&gt;.json &#183; evidence/captures/ &#183; tool_calls.jsonl</text></g><?plantuml-src PLR1SXf74Btp5Hroi8KHEBUKIoNL6XOP5uBDWcEvAbMgqMx3JZJCh6TcGUIKZyY_v9vFoPVapIu8H4wiUlhrTFTxtQCtzFLJjA1eiFWIJIRVw5EK9F5qJeiPpQOnpUDuIF_--HVvWabg9tCcioH1JkgLOYhbnlW7VlPMP9uoeLIlzOPI5ZafNdhoXgnS5Pw48o_NtADumtRd2y3faPV6ChNZ1jucVfREEt86rmbWg33EIyLToaD4On5xe4oLBvMmVBcqHdlEoGkxOa_1LL5fJLvbx836JRb4MiZRr_WbqbQiC-wrVf0wKnMgUK1boAkirghLAeNrCfEbq9xQdKxAeQ9EvpTzvUGV_E6dzzU5s31jcHop9kblhlhXvBeT2apFyRV2yokqg7BfUokOJt6tvxWe-rv9-nhA3ha0s0rKQ5eYCNeKsTDfeEWyqBwphm859fD06zq9R-NpQO3uVm6qbLdn2l_4E_JSChhhc9GnJrNfJeDCpuCay0Inhw9amh7hNuMVw_ufEccrKhgyffG-eCd2PWKrlfs-5Ti-YSmQvwZJ2GdiEftwjAMDvxtIm7BQ8ee2HJa9PK7zZZAZ56U-pjnNLZiQH8DFZRZX7PgI5InATfvAN20VeMwXtPPj5xyvk2RFIZdQcMeF2EeawLxka1gU1YUsJghNOk12PlkIRb4Iv9aXhvlMxS6or_XUnLq0g1H803fRcvmRWpNFkvkpAc_fnz77qVjuX7I2LfULuxo7ZepOP_M0lGnGaohcPHtIjsIsciP9AACkAHHZIhR26nl-s176YogTenAfD-Y9X6QbqQSbrGL4A01AD5lEMz71a4Ex6BlRU76qMUCXtijAKB0q1JMVbkjxwkzHcEkvKQ3M7h7DO8F1_8Q-YbrGFJajIbSOln-7oYhCXuOhDafEmzdTMREYMX8XHgCB7UH3kDgHqOUry87aacfTWG9VOCYaSbqWmxI5Qn-GzoE_I2WP_pfRH1ydCRtTIlYxocxa9dHUGH3k0aWqT3gxh1qllyMBlQF6naIkNBgBqvRM5SUe6FdJMmK9TFVjuR3zA4m3ZFb5ApvuBiL6PgZWdxyfZFeJHYryRv4m-_fpmOfNLgp3zo_f4RcOp2bZw-aTrFCvIk-W7BWCPkcyNYnrRs1OemdzUJBg3--YT734OmyenYIcmoZ18p8RpuFtWP_1yBvU-4fgFcA2xZxF-uCvhe2yWEzYsrSsWzR1PvVcIGIfL9xT4HIqY_gJuSZrvLgiiDjnqX_hfUdI_LtIfVX-F3hwTpfVqab382nF6Dn6a0QqleFYrwMgz_8f0gi5Crk2LXpK3rwWuDrU34tANIg4Ao3q1ZWDqiUUMsB1kjRqO1hDHb5en46HeQMitQxkvRmmUMFxMXZfxkycXqLw3D3fZF6ggVjz7k7fKcmlbLdLUu56utI-sCj-nHfJgywqFiLY68v-ZWVGN_tSadXqZ5qCoiA-6iQ3IPJ6mnucui2YhJIydK2Us_3seckPgLIjJFfU8KXWYjfXlmM1BmtuQmE2UCqihR7YnLDucg3K5x_cIM-VghokD0bgq8pMpgQ4rLEpt4eEHs7LNmNJTUztryYRD_Zd0qFQt_Fa-hNeZL4FuPLsjQFw3m00?></g></svg>